<svg width="1024" height="1024" viewBox="0 0 1024 1024" xmlns="http://www.w3.org/2000/svg">
  <defs>
    <linearGradient id="fond" x1="0" y1="0" x2="1" y2="1">
      <stop offset="0" stop-color="#332b52"/>
      <stop offset="0.55" stop-color="#1c1926"/>
      <stop offset="1" stop-color="#131118"/>
    </linearGradient>
    <linearGradient id="plume" x1="0" y1="0" x2="0" y2="1">
      <stop offset="0" stop-color="#b7a4ff"/>
      <stop offset="1" stop-color="#8f7ae8"/>
    </linearGradient>
  </defs>

  <rect x="64" y="64" width="896" height="896" rx="204" fill="url(#fond)"/>
  <rect x="64" y="64" width="896" height="896" rx="204" fill="none" stroke="#ffffff" stroke-opacity="0.07" stroke-width="6"/>

  <!-- Plume (tracé lucide « feather »), centrée -->
  <g transform="translate(512 500) scale(30) translate(-12 -12)"
     fill="none" stroke="url(#plume)" stroke-width="1.7"
     stroke-linecap="round" stroke-linejoin="round">
    <path d="M12.67 19a2 2 0 0 0 1.416-.588l6.154-6.172a6 6 0 0 0-8.49-8.49L5.586 9.914A2 2 0 0 0 5 11.328V18a1 1 0 0 0 1 1z"/>
    <path d="M16 8 2 22"/>
    <path d="M17.5 15H9"/>
  </g>
</svg>
